/* XPM */
static char *_62c95f210a146da96104b2fbb4eb1f5aIUSrmtNyqJrYR9n[] = {
/* columns rows colors chars-per-pixel */
"32 40 11 1 ",
"  c None",
". c #141413",
"X c #1E1E17",
"o c #1C1C1B",
"O c #28261F",
"+ c #292A28",
"@ c #313534",
"# c #383F40",
"$ c #464D4F",
"% c #536265",
"& c #62797E",
/* pixels */
"                                ",
"                                ",
"                                ",
"                                ",
"                                ",
"                                ",
"      o%%&&&&&&%&%%%%$%$$o      ",
"   @$%$+++++++++o+oooo.o.$$@X   ",
"  +..o+##############@#@@o...X  ",
"  .$$%$#$#$$$$$$#$#$##@#@$$@O.  ",
"   .XX+%%&&&&&&%&%%%%$%$$o...   ",
"   OO@##++++++++o+oooo.o.XXXX   ",
"   O@@@#######@#@@@@O@OOXOXXO   ",
"   O@##$$$$$$#$####@#@@@OOOXO   ",
"  XO@@##$$$$#$#$##@#@#@O@OXOOX  ",
"  +O@##$#$$$$#$####@#@@@O@OXOX  ",
"  .@$$$#$#$$$$#$####@#@@@##@O.  ",
"   .XX+%%&&&%&%%%%%%%$%$$....   ",
"   OO@##++++++++o+oooo.o.XXXX   ",
"   O@@@#######@#@@@@O@OOXOXXO   ",
"   O@##$$$$$$#$####@#@@@OOOXO   ",
"  XO@@##$$$$#$#$##@#@#@O@OXOOX  ",
"  +O@##$#$$$$#$####@#@@@O@OXOX  ",
"  .@$$$#$#$$$$#$####@#@@@##@O.  ",
"   .XX+%%&&&%&%%%%%%%$%$$....   ",
"   OO@##++++++++o+oooo.o.XXXX   ",
"   O@@@#######@#@@@@O@OOXOXXO   ",
"   O@##$$$$$$#$####@#@@@OOOXO   ",
"  XO@@##$$$$#$#$##@#@#@O@OXOOX  ",
"  +O@##$#$$$$#$####@#@@@O@OXOX  ",
"  .@$$$#$#$$$$#$####@#@@@##@O.  ",
"   .XX+%%&&&%&%%%%%%%$%$$....   ",
"   OO@##++++++++o+oooo.o.XXXX   ",
"   O@@@#######@#@@@@O@OOXOXXO   ",
"   O@##$$$$$$#$####@#@@@OOOXO   ",
"  XO@@##$$$$#$#$##@#@#@O@OXOOX  ",
"  +O@##$#$$$$#$####@#@@@O@OXOX  ",
"  .@$$$#$#$$$$#$####@#@@@##@O.  ",
"   ..o+%%&&&%&%%%%%%%$%$$....   ",
"      oo++++++++o+oooo.o..      "
};
