/* XPM */
static char *_06bc1983ecc4741d3d278c2a23066f3FpKOHGpg0bZuJQaX[] = {
/* columns rows colors chars-per-pixel */
"32 40 23 1 ",
"  c None",
". c black",
"X c #141413",
"o c #1E1E17",
"O c #1C1C1B",
"+ c #1D1D1C",
"@ c #28261F",
"# c #222524",
"$ c #272C2D",
"% c #292A28",
"& c #313534",
"* c #313637",
"= c #024122",
"- c #0C5A33",
"; c #1D783C",
": c #383F40",
"> c #3A4446",
", c #464D4F",
"< c #445457",
"1 c #536265",
"2 c #62797E",
"3 c #66A916",
"4 c #429128",
/* pixels */
"                                ",
"                                ",
"                                ",
"                                ",
"                                ",
"                                ",
"      O11222222121111,1,,O      ",
"   &,1,%%%%%%%%%O%OOOOXOX,,&o   ",
"  %XX=--;-;-;;;;;;;;;;;;--=XXo  ",
"  X,,1,--;;;;4;434333334;,,&@X  ",
"   Xoo%11222222121111,1,,OXXX   ",
"   @@&::%%%%%%%%O%OOOOXO-oooo   ",
"   @&&&:::::::&:&&&&@&@@;@oo@   ",
"   @&::,,,,,,:,::::&:&&-4@@o@   ",
"  o@&&::,,,,:,:,::&:&:&-3@o@@o  ",
"  %@&::,:,,,,:,::::&:&&&;&@o@o  ",
"  X&,,,:,:,,,,:,::::&:&434;&@X  ",
"   XoO%11222121111144334;XXXX   ",
"   @@&::%%%%%+%%O%OOOOXO-oooo   ",
"   @&&&:::::$#$:&&&&@&@@o@oo@   ",
"   @&::,,,,*$*$$:::&:&&&-@@o@   ",
"  o@&&::,,***$*$$:&:&:&@;@o@@o  ",
"  %@&::,,***$*$&$$:&:&&&;&@o@o  ",
"  X&,,,,$****$*$$$$:&:&-34:&@X  ",
"   Xoo%11<<><>>>>>111,43;XXXX   ",
"   @@&*>%%++++OO++OOOOXO-oooo   ",
"   @&&*>:::##$##&&&&@&@@o@oo@   ",
"   @&>*,,,,,&$$>:::&:&&&@@@o@   ",
"  o@&&::,,,,,$,,::&:&:&@&@o@@o  ",
"  %@&::,:,,,,,,::::&:&&&-&@o@o  ",
"  X&,,,:,:,,,,:,::::&:&&44:&@X  ",
"   Xo@%11222121111111,14;XXXX   ",
"   @@&::%%%%%%%%O%OOOOXO-oooo   ",
"   @&&&:::::::&:&&&&@&@@o@oo@   ",
"   @&::,,,,,,:,::::&:&&&@@@o@   ",
"  o@&&::,,,,:,:,::&:&:&@&@o@@o  ",
"  %@&::,:,,,,:,::::&:&&&@&@o@o  ",
"  X&,,,:,:,,,,:,::::&:&&&::&@X  ",
"   XXO%11222121111111,1,,XXXX   ",
"      .O%%%%%%%%O%OOOOXOXX      "
};
