/* XPM */
static char *e341d8b6986846c1f6c2916b10f46d7fGYxazuCiDTpI51mF[] = {
/* columns rows colors chars-per-pixel */
"192 48 6 1 ",
"  c None",
". c black",
"X c #222A5C",
"o c #D22F1E",
"O c #566A89",
"+ c #8BABBF",
/* pixels */
"                                                                                                                                                                                                ",
"                                                                                                                                                                                                ",
"                                                                                                                                                                                                ",
"                                                                                                                                                                                                ",
"                                                                                                                                                                                                ",
"                                                                                                                                                                                                ",
"                                                                                                                                                                                                ",
"                                                                                                                                                                                                ",
"                                                                                                                                                                                                ",
"                                                                                                                                                                                                ",
"                                                                                                                                                                                                ",
"                                                                                                                                                                                                ",
"                                                                                                                                                                                                ",
"                                                                                                                                                                                                ",
"                                                                                                                                                                                                ",
"                                                                                                                                                                       .. ...                   ",
"                                                                                                                       .. ...                                        ...X..X.                   ",
"                                                                                                                    ....X..X....                                    .OO.XXXX..                  ",
"                  ...        ..                             ....                 ....                           ....OOO.XXXX.XXX...                                .OOOOXoXXoX.                 ",
"                ..OOO. .. ...XX.                            .OOO..             ..XXX.                       ....OOOOOOOOXoXXoXXXXXX...                             .OOOOXXXX.XX.                ",
"               .OOOOOO..X..X.XXX.                            .OOOO..         ..XXXX.                       .OOOOOOOOOOOOXXXX.XXXXXXXXX.                            .OOO++XXO.XX.                ",
"              .OOOOOOOO.XXXX.XXXX.                            .OOOOO.. .. ...XXXXX.                        .OOOOOOOOOOO++XXO.XXXXXXXXX.                           .XOOO++++O.XX.                ",
"             .OOOOOOOOOOXoXXoXXXX.                             .OOOOOO..X..X.XXXX.                         .OOOOOOOOOOO++++O.XXXXXXXXX.                           .XOOO++++O.XX.                ",
"            .OOOOOOOOOOOXXXX.XXXXX.                             .OOOOOO.XXXX.XXX.                          .OOOOOOOOOOO++++O.XXXXXXXXX.                          .XOOOO.+++..XX.                ",
"            ....OOOOOOO++XXO.XXX...                              .OOOOOOXoXXoXX.                           .OOOOOOOOOOO.+++..XXXXXXXXX.                          ..OOO. ... .XX.                ",
"                ...XOOO++++O.X..                                  .OOOOOXXXX.X.                            .OOOOOOOOOO. ...  .XXXXXXXX.                           .OOO.     .XX.                ",
"                  .X.XX++++O..                                     .OOO++XXO..                              .OOOOOOOO.        .XXXXXX.                            .OOO.     .XX.                ",
"                  ......+++.                                      .XXOO++++O.                               .OOOOOOO.          .XXXXX.                            .OOO.     .XX.                ",
"                        ...                                       .X.XX++++O.                                .OOOO..            .XXX.                             .OOO.     .XX.                ",
"                                                                  ......+++.                                  ....               ...                              .OO.       .X.                ",
"                                                                        ...                                                                                       ...         ..                ",
"                                                                                                                                                                                                ",
"                                                                                                                                                                                                ",
"                                                                                                                                                                                                ",
"                                                                                                                                                                                                ",
"                                                                                                                                                                                                ",
"                                                                                                                                                                                                ",
"                                                                                                                                                                                                ",
"                                                                                                                                                                                                ",
"                                                                                                                                                                                                ",
"                                                                                                                                                                                                ",
"                                                                                                                                                                                                ",
"                                                                                                                                                                                                ",
"                                                                                                                                                                                                ",
"                                                                                                                                                                                                ",
"                                                                                                                                                                                                ",
"                                                                                                                                                                                                ",
"                                                                                                                                                                                                "
};
