/* XPM */
static char *_a40b996adfe4f3df261a258481edcff4guEBvNZ2ag1UtP4[] = {
/* columns rows colors chars-per-pixel */
"34 38 5 1 ",
"  c None",
". c black",
"X c #222A5C",
"o c #45B8B3",
"O c #8CFFDE",
/* pixels */
"                .....             ",
"               .OOOOO.            ",
"              .OXOOXO.            ",
"              .OXOOXO.            ",
"              .OOOOOO.            ",
"              .OOXXOOO.           ",
"         .....OOXXXXOOO.....      ",
"    .....OOOOOOOXXXXOOOOOOOO..... ",
" ...OOOOOOOOOOOOXXXXOOOOOOOOOOOOO.",
".OOOOOOOOOOOOOOOOXXOOOOOOOOOOOOOO.",
".OOOOOOOOOOOOOOOOOOOOOOOOOOOOOOOO.",
".OOOOOOOOOOOOOOOOOOOOOOOOOOOOOOOO.",
".OOOOOOOOOOOOOOOOOOOOOOOOOOOOOOOO.",
" .oooOOOOOOOOOOOOOOOOOOOOOooOOOO. ",
"  .OOOOOOOOOOOOOOOOOOOOOOOOOooo.  ",
"  .OOOOOOOOOOOOOOOOOOOOOOOOOOo.   ",
"  .OOOOOOOOOOOOOOOOOOOOOOOOOO.    ",
"  .OOOOOoOOOOOOOOOOOOOOOOOOOO.    ",
"   .OOOoOOOOOOOOOOOOOOOOOOOOO.    ",
"    ..ooOOOOOOOOOOOOOOOOOOOOO.    ",
"      .OOOOOOOOOOOOOOOOOOoOOO.    ",
"      .OOOOOOOOOOOOOoOOOOoOOO.    ",
"      .OOOOOOOOOOOOOOOOOOoo..     ",
"      .OOOOOOOOOOOOOoOOOOo.       ",
"      .OOOOoOOOOOOOOoOOOOO.       ",
"      .OOOOoOOOOOOOOoOOOOO.       ",
"      .OOOOOOOOOOOOOoOOOOO.       ",
"      .OOOOoOOOOOOOOOoOOOO.       ",
"       .OOOoOOOOOOOOOoOOOO.       ",
"        ...oOOOOOOOOOoOOOO.       ",
"           .OOOOOOOOOooOO.        ",
"           .OOOOOOOOOo...         ",
"           .OOOOOOOOO.            ",
"           .OOOOOOOOO.            ",
"           .OOOOOOOOO.            ",
"            .OOOOOOO.             ",
"             ..OOO..              ",
"               ...                "
};
