/* XPM */
static char *_9fbcfffda394416f59908c0853042d61LAnolRTc469wNNn[] = {
/* columns rows colors chars-per-pixel */
"41 33 5 1 ",
"  c None",
". c black",
"X c #222A5C",
"o c #45B8B3",
"O c #8CFFDE",
/* pixels */
"            ....                         ",
"           .OOOO..                       ",
"          .OOOOOOO..       .........     ",
"          .OOOOXXOOO.......OOOOOOOOO.    ",
"          .XOOOXXOOOOOOOOOOOOOOOOOOO.    ",
"          .XOOOOOOOOOOOOOOOOOOOOOOOO.    ",
"          .OOOOOOOOOOOOOOOOOOOOOOOOO.    ",
"          .OOXXOOOOOOOOOOOOOOOOOOOo.     ",
"         ..OOXXXOOOOOOOOOOOOOOOoooo.     ",
"       ..OOOOXXXOOOOOOOOOOOOOOOOOOO.     ",
"     ..OOOOOOOXXOOOOOOOOOOOOOOOOOOOO.    ",
"   ..OOOOOOOOOOOOOOOOOOOOOOOOOOOOOOO.    ",
" ..OOOOOOOOOOOOOOOOOOOOOOOOOOOOOOOOOO.   ",
".OOOOOOOOOOOOOOOOOOOOOOOOOOOOOOOOOOOO.   ",
".OOOOOOOOOOOOOOOOOOOOOOOOOOOOOOoOOOOO.   ",
".OOOOOOOOOOOOOOOOOOOOOOOOOOOOOOOoOOO.    ",
".OOOOOOOOOOOOOOOOOOOOOOOOOOOOOOOOo..     ",
" .OOOOOOOoOOOOOOOOOOOOOOOOOOOOOOOo.      ",
"  .OOOooOOOOOOOOOOOOOOOOOOOOOOOOOOo.     ",
"   ....OOOOOOOOOOOOOOOOOOOOOOOOOOOOo.    ",
"       .OOOOOOOOOOOOOOOOOOOOOOOOOOOOo.   ",
"        .OOOoOOOOOOOOOOOOOOOOOOOOOOOO.   ",
"         .OOOoOOOOOOOOOOOOOOOOOOOOOOOO.  ",
"          .OOOoOOOOOOOOOOOOOOOOOOOOOOOO. ",
"           .OOooOOOOOOOOOOOOOOOOOoOOOOOO.",
"            ....oOOOOOOoOOOOOOOOOOoOOOOO.",
"                .OOOOOOOoOOOOOOOOOOoOOOO.",
"                 .OOOOOOOoOOOOOOOOOooOOO.",
"                  .OOOOOOooOOOOOOOOOo... ",
"                   .OOOOo...OOOOOOOOO.   ",
"                    .....   .OOOOOOOO.   ",
"                             .OOOOOOO.   ",
"                              .......    "
};
