/* XPM */
static char *e36b2a078ef948a2f6db3fcde3747d17RWcfKmYJ5NN00FN9[] = {
/* columns rows colors chars-per-pixel */
"37 31 5 1 ",
"  c None",
". c black",
"X c #222A5C",
"o c #45B8B3",
"O c #8CFFDE",
/* pixels */
"                  ......             ",
"                 .OOOOOO.            ",
"                 .OOOOOO.            ",
" ......         .OXXOOOX.            ",
".OOOOOo.....    .OXXOOOX.            ",
".OOOOOOOOOOo.....OOOOOOO..           ",
".OOOOOOOOOOOOOOooOOOOXXOoo....       ",
".OOOOOOOOOOOOOOOOOOOXXXOOOOOOo...... ",
" .OOOOOOOOOOOOOOOOOOXXXOOOOOOOOOOOOO.",
" .OOOOOOOOOOOOOOOOOOXXOOOOOOOOOOOOOO.",
" .OOOOOOOOOOOOOOOOOOOOOOOOOOOOOOOOOO.",
"  .OOOOOOOOOOOOOOOOOOOOOOOOOOOOOOOO. ",
"   ...oooooOOOOOOOOOOOOOOOOOOOOOOOO. ",
"     .ooOOOOOOOOOOOOOOOOOOOOOOOOO..  ",
"     .OOOOOOOOOOOOOOOOOOOOOOooo..    ",
"    .OOOOOOOOOOOOOOOOOOOOOOOOO.      ",
"    .OOOOOOOOOOOOOOOOOOOOOOOOO.      ",
"   .OOOOOOoOOOOOOOOOOOOOOOOOOO.      ",
"   .OOOOOoOOOOOOOOOOOOOOOoOOOO.      ",
"   .OOOOoOOOOOOOOOOOOOOOOOOOO.       ",
"   .OOooOOOOOOOoOOOOOOOOOOOOO.       ",
"    ..oOOOOOOOOOOOOOOOOOoOOO.        ",
"      .OOOOOOOoOOOOOOOOOoOO.         ",
"      .OOOOOOoOOOOOOOOOooo.          ",
"      .OOOOOooOOOOOOOOO...           ",
"      .OOOOooOOOOOOOOO.              ",
"       .....oOOOOOOOO.               ",
"           .OOOOOOOO.                ",
"           .OOOOOOO.                 ",
"            .OOOO..                  ",
"             ....                    "
};
